<?xml version="1.0" standalone="no"?>
 <!DOCTYPE svg PUBLIC "-//W3C//DTD SVG 1.1//EN" 
 "http://www.w3.org/Graphics/SVG/1.1/DTD/svg11.dtd"> 
<svg
  xmlns:svg="http://www.w3.org/2000/svg"
  xmlns="http://www.w3.org/2000/svg"
  xmlns:xlink="http://www.w3.org/1999/xlink"
  version="1.1"
  width="5.427980cm" height="5.450840cm" viewBox="0 0 21370 21460">
<title>SVG Picture created as kicad design-Dwgs_User.svg date 2021/03/09 19:04:29 </title>
  <desc>Picture generated by PCBNEW </desc>
<g style="fill:#000000; fill-opacity:1;stroke:#000000; stroke-opacity:1;
stroke-linecap:round; stroke-linejoin:round;"
 transform="translate(0 0) scale(1 1)">
</g>
<g style="fill:#000000; fill-opacity:0.0; 
stroke:#000000; stroke-width:-0.000393701; stroke-opacity:1; 
stroke-linecap:round; stroke-linejoin:round;">
</g>
<g style="fill:#000000; fill-opacity:0.0; 
stroke:#000000; stroke-width:59.0551; stroke-opacity:1; 
stroke-linecap:round; stroke-linejoin:round;">
<text x="9344.71" y="13905.9"
textLength="2372.41" font-size="524.934" lengthAdjust="spacingAndGlyphs"
text-anchor="middle" opacity="0">UnDone</text>
<path d="M8342 13493
L8302 13812
L8316 13849
L8332 13868
L8367 13887
L8442 13887
L8482 13868
L8503 13849
L8527 13812
L8567 13493
" />
<path d="M8738 13624
L8705 13887
" />
<path d="M8733 13662
L8754 13643
L8794 13624
L8850 13624
L8885 13643
L8899 13680
L8874 13887
" />
<path d="M9061 13887
L9110 13493
L9204 13493
L9258 13512
L9291 13549
L9305 13587
L9314 13662
L9307 13718
L9279 13793
L9256 13830
L9213 13868
L9155 13887
L9061 13887
" />
<path d="M9511 13887
L9476 13868
L9460 13849
L9445 13812
L9460 13699
L9483 13662
L9504 13643
L9544 13624
L9600 13624
L9635 13643
L9652 13662
L9666 13699
L9652 13812
L9628 13849
L9607 13868
L9567 13887
L9511 13887
" />
<path d="M9844 13624
L9811 13887
" />
<path d="M9839 13662
L9860 13643
L9900 13624
L9956 13624
L9991 13643
L10006 13680
L9980 13887
" />
<path d="M10320 13868
L10280 13887
L10205 13887
L10170 13868
L10156 13830
L10174 13680
L10198 13643
L10238 13624
L10313 13624
L10348 13643
L10362 13680
L10357 13718
L10165 13755
" />
<path d="M6844 709
L6844 1709
" />
<path d="M12344 709
L6844 709
" />
<path d="M12344 4709
L12344 709
" />
<path d="M13344 6209
L12344 4709
" />
<path d="M17844 6209
L13344 6209
" />
<path d="M18844 7709
L17844 6209
" />
<path d="M18844 11209
L18844 7709
" />
<path d="M17344 12709
L18844 11209
" />
<path d="M20344 12709
L17344 12709
" />
<path d="M21344 13709
L20344 12709
" />
<path d="M21344 16709
L21344 13709
" />
<path d="M19844 17709
L21344 16709
" />
<path d="M5844 17709
L19844 17709
" />
<path d="M4844 15709
L5844 17709
" />
<path d="M1344 15709
L4844 15709
" />
<path d="M344 14209
L1344 15709
" />
<path d="M344 8209
L344 14209
" />
<path d="M1344 6709
L344 8209
" />
<path d="M5844 6709
L1344 6709
" />
<path d="M6844 5709
L5844 6709
" />
<path d="M6844 1709
L6844 5709
" />
<g >
</g>
<g >
</g>
<g >
</g>
<g >
</g>
<g >
</g>
<g >
</g>
<g >
</g>
<g >
</g>
<g >
</g>
<g >
</g>
<g >
</g>
<g >
</g>
<g >
</g>
</g>
<g style="fill:#000000; fill-opacity:0.0; 
stroke:#000000; stroke-width:59.0551; stroke-opacity:1; 
stroke-linecap:round; stroke-linejoin:round;">
<g >
</g>
<g >
</g>
<g >
</g>
<g >
</g>
<g >
</g>
<g >
</g>
<g >
</g>
<g >
</g>
<g >
</g>
<g >
</g>
<g >
</g>
<g >
</g>
<g >
</g>
</g> 
</svg>
