<?xml version="1.0" standalone="no"?>
 <!DOCTYPE svg PUBLIC "-//W3C//DTD SVG 1.1//EN" 
 "http://www.w3.org/Graphics/SVG/1.1/DTD/svg11.dtd"> 
<svg
  xmlns:svg="http://www.w3.org/2000/svg"
  xmlns="http://www.w3.org/2000/svg"
  xmlns:xlink="http://www.w3.org/1999/xlink"
  version="1.1"
  width="5.427980cm" height="5.450840cm" viewBox="0 0 21370 21460">
<title>SVG Picture created as kicad design-brd.svg date 2021/03/09 19:04:33 </title>
  <desc>Picture generated by PCBNEW </desc>
<g style="fill:#000000; fill-opacity:1;stroke:#000000; stroke-opacity:1;
stroke-linecap:round; stroke-linejoin:round;"
 transform="translate(0 0) scale(1 1)">
</g>
<g style="fill:#000000; fill-opacity:0.0; 
stroke:#000000; stroke-width:-0.000393701; stroke-opacity:1; 
stroke-linecap:round; stroke-linejoin:round;">
<g >
</g>
<g style="fill:#000000; fill-opacity:1.0; 
stroke:#000000; stroke-width:0; stroke-opacity:1; 
stroke-linecap:round; stroke-linejoin:round;">
<circle cx="10844.7" cy="3709.05" r="413.386" /> 
</g>
<g style="fill:#000000; fill-opacity:1.0; 
stroke:#000000; stroke-width:39.3701; stroke-opacity:1; 
stroke-linecap:round; stroke-linejoin:round;">
</g>
<g style="fill:#000000; fill-opacity:1.0; 
stroke:#000000; stroke-width:0; stroke-opacity:1; 
stroke-linecap:round; stroke-linejoin:round;">
<circle cx="9844.71" cy="3709.05" r="413.386" /> 
</g>
<g style="fill:#000000; fill-opacity:1.0; 
stroke:#000000; stroke-width:39.3701; stroke-opacity:1; 
stroke-linecap:round; stroke-linejoin:round;">
</g>
<g style="fill:#000000; fill-opacity:1.0; 
stroke:#000000; stroke-width:0; stroke-opacity:1; 
stroke-linecap:round; stroke-linejoin:round;">
<path style="fill:#000000; fill-opacity:1.0; 
stroke:#000000; stroke-width:0; stroke-opacity:1; 
stroke-linecap:round; stroke-linejoin:round;fill-rule:evenodd;"
d="M 8431.32,4122.43
8431.32,3295.66
9258.09,3295.66
9258.09,4122.43
Z" /> 
</g>
<g >
</g>
<g style="fill:#000000; fill-opacity:1.0; 
stroke:#000000; stroke-width:0; stroke-opacity:1; 
stroke-linecap:round; stroke-linejoin:round;">
<circle cx="4344.71" cy="8709.05" r="433.071" /> 
</g>
<g style="fill:#000000; fill-opacity:1.0; 
stroke:#000000; stroke-width:39.3701; stroke-opacity:1; 
stroke-linecap:round; stroke-linejoin:round;">
</g>
<g style="fill:#000000; fill-opacity:1.0; 
stroke:#000000; stroke-width:0; stroke-opacity:1; 
stroke-linecap:round; stroke-linejoin:round;">
<circle cx="4344.71" cy="9709.05" r="433.071" /> 
</g>
<g style="fill:#000000; fill-opacity:1.0; 
stroke:#000000; stroke-width:39.3701; stroke-opacity:1; 
stroke-linecap:round; stroke-linejoin:round;">
</g>
<g style="fill:#000000; fill-opacity:1.0; 
stroke:#000000; stroke-width:0; stroke-opacity:1; 
stroke-linecap:round; stroke-linejoin:round;">
<circle cx="4344.71" cy="10709" r="433.071" /> 
</g>
<g style="fill:#000000; fill-opacity:1.0; 
stroke:#000000; stroke-width:39.3701; stroke-opacity:1; 
stroke-linecap:round; stroke-linejoin:round;">
</g>
<g style="fill:#000000; fill-opacity:1.0; 
stroke:#000000; stroke-width:0; stroke-opacity:1; 
stroke-linecap:round; stroke-linejoin:round;">
<circle cx="4344.71" cy="11709" r="433.071" /> 
</g>
<g style="fill:#000000; fill-opacity:1.0; 
stroke:#000000; stroke-width:39.3701; stroke-opacity:1; 
stroke-linecap:round; stroke-linejoin:round;">
</g>
<g style="fill:#000000; fill-opacity:1.0; 
stroke:#000000; stroke-width:0; stroke-opacity:1; 
stroke-linecap:round; stroke-linejoin:round;">
<circle cx="4344.71" cy="12709" r="433.071" /> 
</g>
<g style="fill:#000000; fill-opacity:1.0; 
stroke:#000000; stroke-width:39.3701; stroke-opacity:1; 
stroke-linecap:round; stroke-linejoin:round;">
</g>
<g style="fill:#000000; fill-opacity:1.0; 
stroke:#000000; stroke-width:0; stroke-opacity:1; 
stroke-linecap:round; stroke-linejoin:round;">
<path style="fill:#000000; fill-opacity:1.0; 
stroke:#000000; stroke-width:0; stroke-opacity:1; 
stroke-linecap:round; stroke-linejoin:round;fill-rule:evenodd;"
d="M 4777.78,14142.1
3911.64,14142.1
3911.64,13276
4777.78,13276
Z" /> 
</g>
<g >
</g>
<g style="fill:#000000; fill-opacity:1.0; 
stroke:#000000; stroke-width:0; stroke-opacity:1; 
stroke-linecap:round; stroke-linejoin:round;">
<path style="fill:#000000; fill-opacity:1.0; 
stroke:#000000; stroke-width:0; stroke-opacity:1; 
stroke-linecap:round; stroke-linejoin:round;fill-rule:evenodd;"
d="M 8194.98,11591.2
8200.72,11592.1
8206.34,11593.5
8211.79,11595.4
8217.03,11597.9
8222,11600.9
8226.66,11604.3
8230.95,11608.2
8234.84,11612.5
8238.3,11617.2
8241.28,11622.2
8243.75,11627.4
8245.71,11632.9
8247.11,11638.5
8247.96,11644.2
8248.25,11650
8248.25,11768.1
8247.96,11773.9
8247.11,11779.6
8245.71,11785.2
8243.75,11790.7
8241.28,11795.9
8238.3,11800.9
8234.84,11805.6
8230.95,11809.9
8226.66,11813.8
8222,11817.2
8217.03,11820.2
8211.79,11822.7
8206.34,11824.6
8200.72,11826
8194.98,11826.9
8189.19,11827.2
7500.22,11827.2
7494.43,11826.9
7488.7,11826
7483.07,11824.6
7477.62,11822.7
7472.38,11820.2
7467.41,11817.2
7462.75,11813.8
7458.46,11809.9
7454.57,11805.6
7451.12,11800.9
7448.14,11795.9
7445.66,11790.7
7443.71,11785.2
7442.3,11779.6
7441.45,11773.9
7441.16,11768.1
7441.16,11650
7441.45,11644.2
7442.3,11638.5
7443.71,11632.9
7445.66,11627.4
7448.14,11622.2
7451.12,11617.2
7454.57,11612.5
7458.46,11608.2
7462.75,11604.3
7467.41,11600.9
7472.38,11597.9
7477.62,11595.4
7483.07,11593.5
7488.7,11592.1
7494.43,11591.2
7500.22,11590.9
8189.19,11590.9
Z" /> 
<path style="fill:#000000; fill-opacity:1.0; 
stroke:#000000; stroke-width:0; stroke-opacity:1; 
stroke-linecap:round; stroke-linejoin:round;fill-rule:evenodd;"
d="M 8194.98,11091.2
8200.72,11092.1
8206.34,11093.5
8211.79,11095.4
8217.03,11097.9
8222,11100.9
8226.66,11104.3
8230.95,11108.2
8234.84,11112.5
8238.3,11117.2
8241.28,11122.2
8243.75,11127.4
8245.71,11132.9
8247.11,11138.5
8247.96,11144.2
8248.25,11150
8248.25,11268.1
8247.96,11273.9
8247.11,11279.6
8245.71,11285.2
8243.75,11290.7
8241.28,11295.9
8238.3,11300.9
8234.84,11305.6
8230.95,11309.9
8226.66,11313.8
8222,11317.2
8217.03,11320.2
8211.79,11322.7
8206.34,11324.6
8200.72,11326
8194.98,11326.9
8189.19,11327.2
7500.22,11327.2
7494.43,11326.9
7488.7,11326
7483.07,11324.6
7477.62,11322.7
7472.38,11320.2
7467.41,11317.2
7462.75,11313.8
7458.46,11309.9
7454.57,11305.6
7451.12,11300.9
7448.14,11295.9
7445.66,11290.7
7443.71,11285.2
7442.3,11279.6
7441.45,11273.9
7441.16,11268.1
7441.16,11150
7441.45,11144.2
7442.3,11138.5
7443.71,11132.9
7445.66,11127.4
7448.14,11122.2
7451.12,11117.2
7454.57,11112.5
7458.46,11108.2
7462.75,11104.3
7467.41,11100.9
7472.38,11097.9
7477.62,11095.4
7483.07,11093.5
7488.7,11092.1
7494.43,11091.2
7500.22,11090.9
8189.19,11090.9
Z" /> 
<path style="fill:#000000; fill-opacity:1.0; 
stroke:#000000; stroke-width:0; stroke-opacity:1; 
stroke-linecap:round; stroke-linejoin:round;fill-rule:evenodd;"
d="M 8194.98,10591.2
8200.72,10592.1
8206.34,10593.5
8211.79,10595.4
8217.03,10597.9
8222,10600.9
8226.66,10604.3
8230.95,10608.2
8234.84,10612.5
8238.3,10617.2
8241.28,10622.2
8243.75,10627.4
8245.71,10632.9
8247.11,10638.5
8247.96,10644.2
8248.25,10650
8248.25,10768.1
8247.96,10773.9
8247.11,10779.6
8245.71,10785.2
8243.75,10790.7
8241.28,10795.9
8238.3,10800.9
8234.84,10805.6
8230.95,10809.9
8226.66,10813.8
8222,10817.2
8217.03,10820.2
8211.79,10822.7
8206.34,10824.6
8200.72,10826
8194.98,10826.9
8189.19,10827.2
7500.22,10827.2
7494.43,10826.9
7488.7,10826
7483.07,10824.6
7477.62,10822.7
7472.38,10820.2
7467.41,10817.2
7462.75,10813.8
7458.46,10809.9
7454.57,10805.6
7451.12,10800.9
7448.14,10795.9
7445.66,10790.7
7443.71,10785.2
7442.3,10779.6
7441.45,10773.9
7441.16,10768.1
7441.16,10650
7441.45,10644.2
7442.3,10638.5
7443.71,10632.9
7445.66,10627.4
7448.14,10622.2
7451.12,10617.2
7454.57,10612.5
7458.46,10608.2
7462.75,10604.3
7467.41,10600.9
7472.38,10597.9
7477.62,10595.4
7483.07,10593.5
7488.7,10592.1
7494.43,10591.2
7500.22,10590.9
8189.19,10590.9
Z" /> 
<path style="fill:#000000; fill-opacity:1.0; 
stroke:#000000; stroke-width:0; stroke-opacity:1; 
stroke-linecap:round; stroke-linejoin:round;fill-rule:evenodd;"
d="M 8194.98,10091.2
8200.72,10092.1
8206.34,10093.5
8211.79,10095.4
8217.03,10097.9
8222,10100.9
8226.66,10104.3
8230.95,10108.2
8234.84,10112.5
8238.3,10117.2
8241.28,10122.2
8243.75,10127.4
8245.71,10132.9
8247.11,10138.5
8247.96,10144.2
8248.25,10150
8248.25,10268.1
8247.96,10273.9
8247.11,10279.6
8245.71,10285.2
8243.75,10290.7
8241.28,10295.9
8238.3,10300.9
8234.84,10305.6
8230.95,10309.9
8226.66,10313.8
8222,10317.2
8217.03,10320.2
8211.79,10322.7
8206.34,10324.6
8200.72,10326
8194.98,10326.9
8189.19,10327.2
7500.22,10327.2
7494.43,10326.9
7488.7,10326
7483.07,10324.6
7477.62,10322.7
7472.38,10320.2
7467.41,10317.2
7462.75,10313.8
7458.46,10309.9
7454.57,10305.6
7451.12,10300.9
7448.14,10295.9
7445.66,10290.7
7443.71,10285.2
7442.3,10279.6
7441.45,10273.9
7441.16,10268.1
7441.16,10150
7441.45,10144.2
7442.3,10138.5
7443.71,10132.9
7445.66,10127.4
7448.14,10122.2
7451.12,10117.2
7454.57,10112.5
7458.46,10108.2
7462.75,10104.3
7467.41,10100.9
7472.38,10097.9
7477.62,10095.4
7483.07,10093.5
7488.7,10092.1
7494.43,10091.2
7500.22,10090.9
8189.19,10090.9
Z" /> 
<path style="fill:#000000; fill-opacity:1.0; 
stroke:#000000; stroke-width:0; stroke-opacity:1; 
stroke-linecap:round; stroke-linejoin:round;fill-rule:evenodd;"
d="M 8194.98,9591.22
8200.72,9592.07
8206.34,9593.48
8211.79,9595.43
8217.03,9597.91
8222,9600.89
8226.66,9604.34
8230.95,9608.23
8234.84,9612.53
8238.3,9617.18
8241.28,9622.15
8243.75,9627.39
8245.71,9632.85
8247.11,9638.47
8247.96,9644.2
8248.25,9649.99
8248.25,9768.1
8247.96,9773.89
8247.11,9779.62
8245.71,9785.25
8243.75,9790.7
8241.28,9795.94
8238.3,9800.91
8234.84,9805.57
8230.95,9809.86
8226.66,9813.75
8222,9817.21
8217.03,9820.19
8211.79,9822.66
8206.34,9824.62
8200.72,9826.02
8194.98,9826.87
8189.19,9827.16
7500.22,9827.16
7494.43,9826.87
7488.7,9826.02
7483.07,9824.62
7477.62,9822.66
7472.38,9820.19
7467.41,9817.21
7462.75,9813.75
7458.46,9809.86
7454.57,9805.57
7451.12,9800.91
7448.14,9795.94
7445.66,9790.7
7443.71,9785.25
7442.3,9779.62
7441.45,9773.89
7441.16,9768.1
7441.16,9649.99
7441.45,9644.2
7442.3,9638.47
7443.71,9632.85
7445.66,9627.39
7448.14,9622.15
7451.12,9617.18
7454.57,9612.53
7458.46,9608.23
7462.75,9604.34
7467.41,9600.89
7472.38,9597.91
7477.62,9595.43
7483.07,9593.48
7488.7,9592.07
7494.43,9591.22
7500.22,9590.94
8189.19,9590.94
Z" /> 
<path style="fill:#000000; fill-opacity:1.0; 
stroke:#000000; stroke-width:0; stroke-opacity:1; 
stroke-linecap:round; stroke-linejoin:round;fill-rule:evenodd;"
d="M 8194.98,9091.22
8200.72,9092.07
8206.34,9093.48
8211.79,9095.43
8217.03,9097.91
8222,9100.89
8226.66,9104.34
8230.95,9108.23
8234.84,9112.53
8238.3,9117.18
8241.28,9122.15
8243.75,9127.39
8245.71,9132.85
8247.11,9138.47
8247.96,9144.2
8248.25,9149.99
8248.25,9268.1
8247.96,9273.89
8247.11,9279.62
8245.71,9285.25
8243.75,9290.7
8241.28,9295.94
8238.3,9300.91
8234.84,9305.57
8230.95,9309.86
8226.66,9313.75
8222,9317.21
8217.03,9320.19
8211.79,9322.66
8206.34,9324.62
8200.72,9326.02
8194.98,9326.87
8189.19,9327.16
7500.22,9327.16
7494.43,9326.87
7488.7,9326.02
7483.07,9324.62
7477.62,9322.66
7472.38,9320.19
7467.41,9317.21
7462.75,9313.75
7458.46,9309.86
7454.57,9305.57
7451.12,9300.91
7448.14,9295.94
7445.66,9290.7
7443.71,9285.25
7442.3,9279.62
7441.45,9273.89
7441.16,9268.1
7441.16,9149.99
7441.45,9144.2
7442.3,9138.47
7443.71,9132.85
7445.66,9127.39
7448.14,9122.15
7451.12,9117.18
7454.57,9112.53
7458.46,9108.23
7462.75,9104.34
7467.41,9100.89
7472.38,9097.91
7477.62,9095.43
7483.07,9093.48
7488.7,9092.07
7494.43,9091.22
7500.22,9090.94
8189.19,9090.94
Z" /> 
<path style="fill:#000000; fill-opacity:1.0; 
stroke:#000000; stroke-width:0; stroke-opacity:1; 
stroke-linecap:round; stroke-linejoin:round;fill-rule:evenodd;"
d="M 8194.98,8591.22
8200.72,8592.07
8206.34,8593.48
8211.79,8595.43
8217.03,8597.91
8222,8600.89
8226.66,8604.34
8230.95,8608.23
8234.84,8612.53
8238.3,8617.18
8241.28,8622.15
8243.75,8627.39
8245.71,8632.85
8247.11,8638.47
8247.96,8644.2
8248.25,8649.99
8248.25,8768.1
8247.96,8773.89
8247.11,8779.62
8245.71,8785.25
8243.75,8790.7
8241.28,8795.94
8238.3,8800.91
8234.84,8805.57
8230.95,8809.86
8226.66,8813.75
8222,8817.21
8217.03,8820.19
8211.79,8822.66
8206.34,8824.62
8200.72,8826.02
8194.98,8826.87
8189.19,8827.16
7500.22,8827.16
7494.43,8826.87
7488.7,8826.02
7483.07,8824.62
7477.62,8822.66
7472.38,8820.19
7467.41,8817.21
7462.75,8813.75
7458.46,8809.86
7454.57,8805.57
7451.12,8800.91
7448.14,8795.94
7445.66,8790.7
7443.71,8785.25
7442.3,8779.62
7441.45,8773.89
7441.16,8768.1
7441.16,8649.99
7441.45,8644.2
7442.3,8638.47
7443.71,8632.85
7445.66,8627.39
7448.14,8622.15
7451.12,8617.18
7454.57,8612.53
7458.46,8608.23
7462.75,8604.34
7467.41,8600.89
7472.38,8597.91
7477.62,8595.43
7483.07,8593.48
7488.7,8592.07
7494.43,8591.22
7500.22,8590.94
8189.19,8590.94
Z" /> 
<path style="fill:#000000; fill-opacity:1.0; 
stroke:#000000; stroke-width:0; stroke-opacity:1; 
stroke-linecap:round; stroke-linejoin:round;fill-rule:evenodd;"
d="M 8194.98,8091.22
8200.72,8092.07
8206.34,8093.48
8211.79,8095.43
8217.03,8097.91
8222,8100.89
8226.66,8104.34
8230.95,8108.23
8234.84,8112.53
8238.3,8117.18
8241.28,8122.15
8243.75,8127.39
8245.71,8132.85
8247.11,8138.47
8247.96,8144.2
8248.25,8149.99
8248.25,8268.1
8247.96,8273.89
8247.11,8279.62
8245.71,8285.25
8243.75,8290.7
8241.28,8295.94
8238.3,8300.91
8234.84,8305.57
8230.95,8309.86
8226.66,8313.75
8222,8317.21
8217.03,8320.19
8211.79,8322.66
8206.34,8324.62
8200.72,8326.02
8194.98,8326.87
8189.19,8327.16
7500.22,8327.16
7494.43,8326.87
7488.7,8326.02
7483.07,8324.62
7477.62,8322.66
7472.38,8320.19
7467.41,8317.21
7462.75,8313.75
7458.46,8309.86
7454.57,8305.57
7451.12,8300.91
7448.14,8295.94
7445.66,8290.7
7443.71,8285.25
7442.3,8279.62
7441.45,8273.89
7441.16,8268.1
7441.16,8149.99
7441.45,8144.2
7442.3,8138.47
7443.71,8132.85
7445.66,8127.39
7448.14,8122.15
7451.12,8117.18
7454.57,8112.53
7458.46,8108.23
7462.75,8104.34
7467.41,8100.89
7472.38,8097.91
7477.62,8095.43
7483.07,8093.48
7488.7,8092.07
7494.43,8091.22
7500.22,8090.94
8189.19,8090.94
Z" /> 
<path style="fill:#000000; fill-opacity:1.0; 
stroke:#000000; stroke-width:0; stroke-opacity:1; 
stroke-linecap:round; stroke-linejoin:round;fill-rule:evenodd;"
d="M 8194.98,7591.22
8200.72,7592.07
8206.34,7593.48
8211.79,7595.43
8217.03,7597.91
8222,7600.89
8226.66,7604.34
8230.95,7608.23
8234.84,7612.53
8238.3,7617.18
8241.28,7622.15
8243.75,7627.39
8245.71,7632.85
8247.11,7638.47
8247.96,7644.2
8248.25,7649.99
8248.25,7768.1
8247.96,7773.89
8247.11,7779.62
8245.71,7785.25
8243.75,7790.7
8241.28,7795.94
8238.3,7800.91
8234.84,7805.57
8230.95,7809.86
8226.66,7813.75
8222,7817.21
8217.03,7820.19
8211.79,7822.66
8206.34,7824.62
8200.72,7826.02
8194.98,7826.87
8189.19,7827.16
7500.22,7827.16
7494.43,7826.87
7488.7,7826.02
7483.07,7824.62
7477.62,7822.66
7472.38,7820.19
7467.41,7817.21
7462.75,7813.75
7458.46,7809.86
7454.57,7805.57
7451.12,7800.91
7448.14,7795.94
7445.66,7790.7
7443.71,7785.25
7442.3,7779.62
7441.45,7773.89
7441.16,7768.1
7441.16,7649.99
7441.45,7644.2
7442.3,7638.47
7443.71,7632.85
7445.66,7627.39
7448.14,7622.15
7451.12,7617.18
7454.57,7612.53
7458.46,7608.23
7462.75,7604.34
7467.41,7600.89
7472.38,7597.91
7477.62,7595.43
7483.07,7593.48
7488.7,7592.07
7494.43,7591.22
7500.22,7590.94
8189.19,7590.94
Z" /> 
<path style="fill:#000000; fill-opacity:1.0; 
stroke:#000000; stroke-width:0; stroke-opacity:1; 
stroke-linecap:round; stroke-linejoin:round;fill-rule:evenodd;"
d="M 8194.98,7091.22
8200.72,7092.07
8206.34,7093.48
8211.79,7095.43
8217.03,7097.91
8222,7100.89
8226.66,7104.34
8230.95,7108.23
8234.84,7112.53
8238.3,7117.18
8241.28,7122.15
8243.75,7127.39
8245.71,7132.85
8247.11,7138.47
8247.96,7144.2
8248.25,7149.99
8248.25,7268.1
8247.96,7273.89
8247.11,7279.62
8245.71,7285.25
8243.75,7290.7
8241.28,7295.94
8238.3,7300.91
8234.84,7305.57
8230.95,7309.86
8226.66,7313.75
8222,7317.21
8217.03,7320.19
8211.79,7322.66
8206.34,7324.62
8200.72,7326.02
8194.98,7326.87
8189.19,7327.16
7500.22,7327.16
7494.43,7326.87
7488.7,7326.02
7483.07,7324.62
7477.62,7322.66
7472.38,7320.19
7467.41,7317.21
7462.75,7313.75
7458.46,7309.86
7454.57,7305.57
7451.12,7300.91
7448.14,7295.94
7445.66,7290.7
7443.71,7285.25
7442.3,7279.62
7441.45,7273.89
7441.16,7268.1
7441.16,7149.99
7441.45,7144.2
7442.3,7138.47
7443.71,7132.85
7445.66,7127.39
7448.14,7122.15
7451.12,7117.18
7454.57,7112.53
7458.46,7108.23
7462.75,7104.34
7467.41,7100.89
7472.38,7097.91
7477.62,7095.43
7483.07,7093.48
7488.7,7092.07
7494.43,7091.22
7500.22,7090.94
8189.19,7090.94
Z" /> 
<path style="fill:#000000; fill-opacity:1.0; 
stroke:#000000; stroke-width:0; stroke-opacity:1; 
stroke-linecap:round; stroke-linejoin:round;fill-rule:evenodd;"
d="M 11856.4,7091.22
11862.1,7092.07
11867.8,7093.48
11873.2,7095.43
11878.5,7097.91
11883.4,7100.89
11888.1,7104.34
11892.4,7108.23
11896.3,7112.53
11899.7,7117.18
11902.7,7122.15
11905.2,7127.39
11907.1,7132.85
11908.5,7138.47
11909.4,7144.2
11909.7,7149.99
11909.7,7268.1
11909.4,7273.89
11908.5,7279.62
11907.1,7285.25
11905.2,7290.7
11902.7,7295.94
11899.7,7300.91
11896.3,7305.57
11892.4,7309.86
11888.1,7313.75
11883.4,7317.21
11878.5,7320.19
11873.2,7322.66
11867.8,7324.62
11862.1,7326.02
11856.4,7326.87
11850.6,7327.16
11161.6,7327.16
11155.8,7326.87
11150.1,7326.02
11144.5,7324.62
11139,7322.66
11133.8,7320.19
11128.8,7317.21
11124.2,7313.75
11119.9,7309.86
11116,7305.57
11112.5,7300.91
11109.6,7295.94
11107.1,7290.7
11105.1,7285.25
11103.7,7279.62
11102.9,7273.89
11102.6,7268.1
11102.6,7149.99
11102.9,7144.2
11103.7,7138.47
11105.1,7132.85
11107.1,7127.39
11109.6,7122.15
11112.5,7117.18
11116,7112.53
11119.9,7108.23
11124.2,7104.34
11128.8,7100.89
11133.8,7097.91
11139,7095.43
11144.5,7093.48
11150.1,7092.07
11155.8,7091.22
11161.6,7090.94
11850.6,7090.94
Z" /> 
<path style="fill:#000000; fill-opacity:1.0; 
stroke:#000000; stroke-width:0; stroke-opacity:1; 
stroke-linecap:round; stroke-linejoin:round;fill-rule:evenodd;"
d="M 11856.4,7591.22
11862.1,7592.07
11867.8,7593.48
11873.2,7595.43
11878.5,7597.91
11883.4,7600.89
11888.1,7604.34
11892.4,7608.23
11896.3,7612.53
11899.7,7617.18
11902.7,7622.15
11905.2,7627.39
11907.1,7632.85
11908.5,7638.47
11909.4,7644.2
11909.7,7649.99
11909.7,7768.1
11909.4,7773.89
11908.5,7779.62
11907.1,7785.25
11905.2,7790.7
11902.7,7795.94
11899.7,7800.91
11896.3,7805.57
11892.4,7809.86
11888.1,7813.75
11883.4,7817.21
11878.5,7820.19
11873.2,7822.66
11867.8,7824.62
11862.1,7826.02
11856.4,7826.87
11850.6,7827.16
11161.6,7827.16
11155.8,7826.87
11150.1,7826.02
11144.5,7824.62
11139,7822.66
11133.8,7820.19
11128.8,7817.21
11124.2,7813.75
11119.9,7809.86
11116,7805.57
11112.5,7800.91
11109.6,7795.94
11107.1,7790.7
11105.1,7785.25
11103.7,7779.62
11102.9,7773.89
11102.6,7768.1
11102.6,7649.99
11102.9,7644.2
11103.7,7638.47
11105.1,7632.85
11107.1,7627.39
11109.6,7622.15
11112.5,7617.18
11116,7612.53
11119.9,7608.23
11124.2,7604.34
11128.8,7600.89
11133.8,7597.91
11139,7595.43
11144.5,7593.48
11150.1,7592.07
11155.8,7591.22
11161.6,7590.94
11850.6,7590.94
Z" /> 
<path style="fill:#000000; fill-opacity:1.0; 
stroke:#000000; stroke-width:0; stroke-opacity:1; 
stroke-linecap:round; stroke-linejoin:round;fill-rule:evenodd;"
d="M 11856.4,8091.22
11862.1,8092.07
11867.8,8093.48
11873.2,8095.43
11878.5,8097.91
11883.4,8100.89
11888.1,8104.34
11892.4,8108.23
11896.3,8112.53
11899.7,8117.18
11902.7,8122.15
11905.2,8127.39
11907.1,8132.85
11908.5,8138.47
11909.4,8144.2
11909.7,8149.99
11909.7,8268.1
11909.4,8273.89
11908.5,8279.62
11907.1,8285.25
11905.2,8290.7
11902.7,8295.94
11899.7,8300.91
11896.3,8305.57
11892.4,8309.86
11888.1,8313.75
11883.4,8317.21
11878.5,8320.19
11873.2,8322.66
11867.8,8324.62
11862.1,8326.02
11856.4,8326.87
11850.6,8327.16
11161.6,8327.16
11155.8,8326.87
11150.1,8326.02
11144.5,8324.62
11139,8322.66
11133.8,8320.19
11128.8,8317.21
11124.2,8313.75
11119.9,8309.86
11116,8305.57
11112.5,8300.91
11109.6,8295.94
11107.1,8290.7
11105.1,8285.25
11103.7,8279.62
11102.9,8273.89
11102.6,8268.1
11102.6,8149.99
11102.9,8144.2
11103.7,8138.47
11105.1,8132.85
11107.1,8127.39
11109.6,8122.15
11112.5,8117.18
11116,8112.53
11119.9,8108.23
11124.2,8104.34
11128.8,8100.89
11133.8,8097.91
11139,8095.43
11144.5,8093.48
11150.1,8092.07
11155.8,8091.22
11161.6,8090.94
11850.6,8090.94
Z" /> 
<path style="fill:#000000; fill-opacity:1.0; 
stroke:#000000; stroke-width:0; stroke-opacity:1; 
stroke-linecap:round; stroke-linejoin:round;fill-rule:evenodd;"
d="M 11856.4,8591.22
11862.1,8592.07
11867.8,8593.48
11873.2,8595.43
11878.5,8597.91
11883.4,8600.89
11888.1,8604.34
11892.4,8608.23
11896.3,8612.53
11899.7,8617.18
11902.7,8622.15
11905.2,8627.39
11907.1,8632.85
11908.5,8638.47
11909.4,8644.2
11909.7,8649.99
11909.7,8768.1
11909.4,8773.89
11908.5,8779.62
11907.1,8785.25
11905.2,8790.7
11902.7,8795.94
11899.7,8800.91
11896.3,8805.57
11892.4,8809.86
11888.1,8813.75
11883.4,8817.21
11878.5,8820.19
11873.2,8822.66
11867.8,8824.62
11862.1,8826.02
11856.4,8826.87
11850.6,8827.16
11161.6,8827.16
11155.8,8826.87
11150.1,8826.02
11144.5,8824.62
11139,8822.66
11133.8,8820.19
11128.8,8817.21
11124.2,8813.75
11119.9,8809.86
11116,8805.57
11112.5,8800.91
11109.6,8795.94
11107.1,8790.7
11105.1,8785.25
11103.7,8779.62
11102.9,8773.89
11102.6,8768.1
11102.6,8649.99
11102.9,8644.2
11103.7,8638.47
11105.1,8632.85
11107.1,8627.39
11109.6,8622.15
11112.5,8617.18
11116,8612.53
11119.9,8608.23
11124.2,8604.34
11128.8,8600.89
11133.8,8597.91
11139,8595.43
11144.5,8593.48
11150.1,8592.07
11155.8,8591.22
11161.6,8590.94
11850.6,8590.94
Z" /> 
<path style="fill:#000000; fill-opacity:1.0; 
stroke:#000000; stroke-width:0; stroke-opacity:1; 
stroke-linecap:round; stroke-linejoin:round;fill-rule:evenodd;"
d="M 11856.4,9091.22
11862.1,9092.07
11867.8,9093.48
11873.2,9095.43
11878.5,9097.91
11883.4,9100.89
11888.1,9104.34
11892.4,9108.23
11896.3,9112.53
11899.7,9117.18
11902.7,9122.15
11905.2,9127.39
11907.1,9132.85
11908.5,9138.47
11909.4,9144.2
11909.7,9149.99
11909.7,9268.1
11909.4,9273.89
11908.5,9279.62
11907.1,9285.25
11905.2,9290.7
11902.7,9295.94
11899.7,9300.91
11896.3,9305.57
11892.4,9309.86
11888.1,9313.75
11883.4,9317.21
11878.5,9320.19
11873.2,9322.66
11867.8,9324.62
11862.1,9326.02
11856.4,9326.87
11850.6,9327.16
11161.6,9327.16
11155.8,9326.87
11150.1,9326.02
11144.5,9324.62
11139,9322.66
11133.8,9320.19
11128.8,9317.21
11124.2,9313.75
11119.9,9309.86
11116,9305.57
11112.5,9300.91
11109.6,9295.94
11107.1,9290.7
11105.1,9285.25
11103.7,9279.62
11102.9,9273.89
11102.6,9268.1
11102.6,9149.99
11102.9,9144.2
11103.7,9138.47
11105.1,9132.85
11107.1,9127.39
11109.6,9122.15
11112.5,9117.18
11116,9112.53
11119.9,9108.23
11124.2,9104.34
11128.8,9100.89
11133.8,9097.91
11139,9095.43
11144.5,9093.48
11150.1,9092.07
11155.8,9091.22
11161.6,9090.94
11850.6,9090.94
Z" /> 
<path style="fill:#000000; fill-opacity:1.0; 
stroke:#000000; stroke-width:0; stroke-opacity:1; 
stroke-linecap:round; stroke-linejoin:round;fill-rule:evenodd;"
d="M 11856.4,9591.22
11862.1,9592.07
11867.8,9593.48
11873.2,9595.43
11878.5,9597.91
11883.4,9600.89
11888.1,9604.34
11892.4,9608.23
11896.3,9612.53
11899.7,9617.18
11902.7,9622.15
11905.2,9627.39
11907.1,9632.85
11908.5,9638.47
11909.4,9644.2
11909.7,9649.99
11909.7,9768.1
11909.4,9773.89
11908.5,9779.62
11907.1,9785.25
11905.2,9790.7
11902.7,9795.94
11899.7,9800.91
11896.3,9805.57
11892.4,9809.86
11888.1,9813.75
11883.4,9817.21
11878.5,9820.19
11873.2,9822.66
11867.8,9824.62
11862.1,9826.02
11856.4,9826.87
11850.6,9827.16
11161.6,9827.16
11155.8,9826.87
11150.1,9826.02
11144.5,9824.62
11139,9822.66
11133.8,9820.19
11128.8,9817.21
11124.2,9813.75
11119.9,9809.86
11116,9805.57
11112.5,9800.91
11109.6,9795.94
11107.1,9790.7
11105.1,9785.25
11103.7,9779.62
11102.9,9773.89
11102.6,9768.1
11102.6,9649.99
11102.9,9644.2
11103.7,9638.47
11105.1,9632.85
11107.1,9627.39
11109.6,9622.15
11112.5,9617.18
11116,9612.53
11119.9,9608.23
11124.2,9604.34
11128.8,9600.89
11133.8,9597.91
11139,9595.43
11144.5,9593.48
11150.1,9592.07
11155.8,9591.22
11161.6,9590.94
11850.6,9590.94
Z" /> 
<path style="fill:#000000; fill-opacity:1.0; 
stroke:#000000; stroke-width:0; stroke-opacity:1; 
stroke-linecap:round; stroke-linejoin:round;fill-rule:evenodd;"
d="M 11856.4,10091.2
11862.1,10092.1
11867.8,10093.5
11873.2,10095.4
11878.5,10097.9
11883.4,10100.9
11888.1,10104.3
11892.4,10108.2
11896.3,10112.5
11899.7,10117.2
11902.7,10122.2
11905.2,10127.4
11907.1,10132.9
11908.5,10138.5
11909.4,10144.2
11909.7,10150
11909.7,10268.1
11909.4,10273.9
11908.5,10279.6
11907.1,10285.2
11905.2,10290.7
11902.7,10295.9
11899.7,10300.9
11896.3,10305.6
11892.4,10309.9
11888.1,10313.8
11883.4,10317.2
11878.5,10320.2
11873.2,10322.7
11867.8,10324.6
11862.1,10326
11856.4,10326.9
11850.6,10327.2
11161.6,10327.2
11155.8,10326.9
11150.1,10326
11144.5,10324.6
11139,10322.7
11133.8,10320.2
11128.8,10317.2
11124.2,10313.8
11119.9,10309.9
11116,10305.6
11112.5,10300.9
11109.6,10295.9
11107.1,10290.7
11105.1,10285.2
11103.7,10279.6
11102.9,10273.9
11102.6,10268.1
11102.6,10150
11102.9,10144.2
11103.7,10138.5
11105.1,10132.9
11107.1,10127.4
11109.6,10122.2
11112.5,10117.2
11116,10112.5
11119.9,10108.2
11124.2,10104.3
11128.8,10100.9
11133.8,10097.9
11139,10095.4
11144.5,10093.5
11150.1,10092.1
11155.8,10091.2
11161.6,10090.9
11850.6,10090.9
Z" /> 
<path style="fill:#000000; fill-opacity:1.0; 
stroke:#000000; stroke-width:0; stroke-opacity:1; 
stroke-linecap:round; stroke-linejoin:round;fill-rule:evenodd;"
d="M 11856.4,10591.2
11862.1,10592.1
11867.8,10593.5
11873.2,10595.4
11878.5,10597.9
11883.4,10600.9
11888.1,10604.3
11892.4,10608.2
11896.3,10612.5
11899.7,10617.2
11902.7,10622.2
11905.2,10627.4
11907.1,10632.9
11908.5,10638.5
11909.4,10644.2
11909.7,10650
11909.7,10768.1
11909.4,10773.9
11908.5,10779.6
11907.1,10785.2
11905.2,10790.7
11902.7,10795.9
11899.7,10800.9
11896.3,10805.6
11892.4,10809.9
11888.1,10813.8
11883.4,10817.2
11878.5,10820.2
11873.2,10822.7
11867.8,10824.6
11862.1,10826
11856.4,10826.9
11850.6,10827.2
11161.6,10827.2
11155.8,10826.9
11150.1,10826
11144.5,10824.6
11139,10822.7
11133.8,10820.2
11128.8,10817.2
11124.2,10813.8
11119.9,10809.9
11116,10805.6
11112.5,10800.9
11109.6,10795.9
11107.1,10790.7
11105.1,10785.2
11103.7,10779.6
11102.9,10773.9
11102.6,10768.1
11102.6,10650
11102.9,10644.2
11103.7,10638.5
11105.1,10632.9
11107.1,10627.4
11109.6,10622.2
11112.5,10617.2
11116,10612.5
11119.9,10608.2
11124.2,10604.3
11128.8,10600.9
11133.8,10597.9
11139,10595.4
11144.5,10593.5
11150.1,10592.1
11155.8,10591.2
11161.6,10590.9
11850.6,10590.9
Z" /> 
<path style="fill:#000000; fill-opacity:1.0; 
stroke:#000000; stroke-width:0; stroke-opacity:1; 
stroke-linecap:round; stroke-linejoin:round;fill-rule:evenodd;"
d="M 11856.4,11091.2
11862.1,11092.1
11867.8,11093.5
11873.2,11095.4
11878.5,11097.9
11883.4,11100.9
11888.1,11104.3
11892.4,11108.2
11896.3,11112.5
11899.7,11117.2
11902.7,11122.2
11905.2,11127.4
11907.1,11132.9
11908.5,11138.5
11909.4,11144.2
11909.7,11150
11909.7,11268.1
11909.4,11273.9
11908.5,11279.6
11907.1,11285.2
11905.2,11290.7
11902.7,11295.9
11899.7,11300.9
11896.3,11305.6
11892.4,11309.9
11888.1,11313.8
11883.4,11317.2
11878.5,11320.2
11873.2,11322.7
11867.8,11324.6
11862.1,11326
11856.4,11326.9
11850.6,11327.2
11161.6,11327.2
11155.8,11326.9
11150.1,11326
11144.5,11324.6
11139,11322.7
11133.8,11320.2
11128.8,11317.2
11124.2,11313.8
11119.9,11309.9
11116,11305.6
11112.5,11300.9
11109.6,11295.9
11107.1,11290.7
11105.1,11285.2
11103.7,11279.6
11102.9,11273.9
11102.6,11268.1
11102.6,11150
11102.9,11144.2
11103.7,11138.5
11105.1,11132.9
11107.1,11127.4
11109.6,11122.2
11112.5,11117.2
11116,11112.5
11119.9,11108.2
11124.2,11104.3
11128.8,11100.9
11133.8,11097.9
11139,11095.4
11144.5,11093.5
11150.1,11092.1
11155.8,11091.2
11161.6,11090.9
11850.6,11090.9
Z" /> 
<path style="fill:#000000; fill-opacity:1.0; 
stroke:#000000; stroke-width:0; stroke-opacity:1; 
stroke-linecap:round; stroke-linejoin:round;fill-rule:evenodd;"
d="M 11856.4,11591.2
11862.1,11592.1
11867.8,11593.5
11873.2,11595.4
11878.5,11597.9
11883.4,11600.9
11888.1,11604.3
11892.4,11608.2
11896.3,11612.5
11899.7,11617.2
11902.7,11622.2
11905.2,11627.4
11907.1,11632.9
11908.5,11638.5
11909.4,11644.2
11909.7,11650
11909.7,11768.1
11909.4,11773.9
11908.5,11779.6
11907.1,11785.2
11905.2,11790.7
11902.7,11795.9
11899.7,11800.9
11896.3,11805.6
11892.4,11809.9
11888.1,11813.8
11883.4,11817.2
11878.5,11820.2
11873.2,11822.7
11867.8,11824.6
11862.1,11826
11856.4,11826.9
11850.6,11827.2
11161.6,11827.2
11155.8,11826.9
11150.1,11826
11144.5,11824.6
11139,11822.7
11133.8,11820.2
11128.8,11817.2
11124.2,11813.8
11119.9,11809.9
11116,11805.6
11112.5,11800.9
11109.6,11795.9
11107.1,11790.7
11105.1,11785.2
11103.7,11779.6
11102.9,11773.9
11102.6,11768.1
11102.6,11650
11102.9,11644.2
11103.7,11638.5
11105.1,11632.9
11107.1,11627.4
11109.6,11622.2
11112.5,11617.2
11116,11612.5
11119.9,11608.2
11124.2,11604.3
11128.8,11600.9
11133.8,11597.9
11139,11595.4
11144.5,11593.5
11150.1,11592.1
11155.8,11591.2
11161.6,11590.9
11850.6,11590.9
Z" /> 
</g>
<g >
</g>
<g style="fill:#000000; fill-opacity:1.0; 
stroke:#000000; stroke-width:0; stroke-opacity:1; 
stroke-linecap:round; stroke-linejoin:round;">
<path style="fill:#000000; fill-opacity:1.0; 
stroke:#000000; stroke-width:0; stroke-opacity:1; 
stroke-linecap:round; stroke-linejoin:round;fill-rule:evenodd;"
d="M 16352.6,14504.3
16352.6,13913.8
17336.8,13913.8
17336.8,14504.3
Z" /> 
<path style="fill:#000000; fill-opacity:1.0; 
stroke:#000000; stroke-width:0; stroke-opacity:1; 
stroke-linecap:round; stroke-linejoin:round;fill-rule:evenodd;"
d="M 19108.5,14504.3
19108.5,13913.8
20092.7,13913.8
20092.7,14504.3
Z" /> 
<path style="fill:#000000; fill-opacity:1.0; 
stroke:#000000; stroke-width:0; stroke-opacity:1; 
stroke-linecap:round; stroke-linejoin:round;fill-rule:evenodd;"
d="M 16352.6,16079.1
16352.6,15488.6
17336.8,15488.6
17336.8,16079.1
Z" /> 
<path style="fill:#000000; fill-opacity:1.0; 
stroke:#000000; stroke-width:0; stroke-opacity:1; 
stroke-linecap:round; stroke-linejoin:round;fill-rule:evenodd;"
d="M 19108.5,16079.1
19108.5,15488.6
20092.7,15488.6
20092.7,16079.1
Z" /> 
</g>
<g >
</g>
<g style="fill:#000000; fill-opacity:1.0; 
stroke:#000000; stroke-width:0; stroke-opacity:1; 
stroke-linecap:round; stroke-linejoin:round;">
<path style="fill:#000000; fill-opacity:1.0; 
stroke:#000000; stroke-width:0; stroke-opacity:1; 
stroke-linecap:round; stroke-linejoin:round;fill-rule:evenodd;"
d="M 14122.1,14365
14131.6,14366.5
14141,14368.8
14150.1,14372.1
14158.8,14376.2
14167.1,14381.1
14174.9,14386.9
14182,14393.4
14188.5,14400.5
14194.3,14408.3
14199.2,14416.6
14203.4,14425.3
14206.6,14434.4
14209,14443.8
14210.4,14453.3
14210.8,14463
14210.8,14955.1
14210.4,14964.8
14209,14974.3
14206.6,14983.7
14203.4,14992.8
14199.2,15001.5
14194.3,15009.8
14188.5,15017.6
14182,15024.7
14174.9,15031.2
14167.1,15036.9
14158.8,15041.9
14150.1,15046
14141,15049.3
14131.6,15051.6
14122.1,15053.1
14112.4,15053.5
13797.5,15053.5
13787.8,15053.1
13778.3,15051.6
13768.9,15049.3
13759.8,15046
13751.1,15041.9
13742.8,15036.9
13735,15031.2
13727.9,15024.7
13721.4,15017.6
13715.6,15009.8
13710.7,15001.5
13706.5,14992.8
13703.3,14983.7
13700.9,14974.3
13699.5,14964.8
13699,14955.1
13699,14463
13699.5,14453.3
13700.9,14443.8
13703.3,14434.4
13706.5,14425.3
13710.7,14416.6
13715.6,14408.3
13721.4,14400.5
13727.9,14393.4
13735,14386.9
13742.8,14381.1
13751.1,14376.2
13759.8,14372.1
13768.9,14368.8
13778.3,14366.5
13787.8,14365
13797.5,14364.6
14112.4,14364.6
Z" /> 
<path style="fill:#000000; fill-opacity:1.0; 
stroke:#000000; stroke-width:0; stroke-opacity:1; 
stroke-linecap:round; stroke-linejoin:round;fill-rule:evenodd;"
d="M 12901.6,14365
12911.2,14366.5
12920.5,14368.8
12929.6,14372.1
12938.3,14376.2
12946.6,14381.1
12954.4,14386.9
12961.5,14393.4
12968,14400.5
12973.8,14408.3
12978.8,14416.6
12982.9,14425.3
12986.1,14434.4
12988.5,14443.8
12989.9,14453.3
12990.4,14463
12990.4,14955.1
12989.9,14964.8
12988.5,14974.3
12986.1,14983.7
12982.9,14992.8
12978.8,15001.5
12973.8,15009.8
12968,15017.6
12961.5,15024.7
12954.4,15031.2
12946.6,15036.9
12938.3,15041.9
12929.6,15046
12920.5,15049.3
12911.2,15051.6
12901.6,15053.1
12892,15053.5
12577,15053.5
12567.3,15053.1
12557.8,15051.6
12548.4,15049.3
12539.3,15046
12530.6,15041.9
12522.3,15036.9
12514.5,15031.2
12507.4,15024.7
12500.9,15017.6
12495.2,15009.8
12490.2,15001.5
12486.1,14992.8
12482.8,14983.7
12480.5,14974.3
12479,14964.8
12478.6,14955.1
12478.6,14463
12479,14453.3
12480.5,14443.8
12482.8,14434.4
12486.1,14425.3
12490.2,14416.6
12495.2,14408.3
12500.9,14400.5
12507.4,14393.4
12514.5,14386.9
12522.3,14381.1
12530.6,14376.2
12539.3,14372.1
12548.4,14368.8
12557.8,14366.5
12567.3,14365
12577,14364.6
12892,14364.6
Z" /> 
</g>
<g >
</g>
<g style="fill:#000000; fill-opacity:1.0; 
stroke:#000000; stroke-width:0; stroke-opacity:1; 
stroke-linecap:round; stroke-linejoin:round;">
<path style="fill:#000000; fill-opacity:1.0; 
stroke:#000000; stroke-width:0; stroke-opacity:1; 
stroke-linecap:round; stroke-linejoin:round;fill-rule:evenodd;"
d="M 14600.4,9343.38
14610,9344.8
14619.3,9347.14
14628.4,9350.4
14637.2,9354.53
14645.5,9359.49
14653.2,9365.25
14660.4,9371.73
14666.9,9378.89
14672.6,9386.65
14677.6,9394.93
14681.7,9403.67
14685,9412.76
14687.3,9422.13
14688.7,9431.68
14689.2,9441.33
14689.2,9756.29
14688.7,9765.94
14687.3,9775.49
14685,9784.86
14681.7,9793.96
14677.6,9802.69
14672.6,9810.97
14666.9,9818.73
14660.4,9825.89
14653.2,9832.38
14645.5,9838.13
14637.2,9843.1
14628.4,9847.23
14619.3,9850.48
14610,9852.83
14600.4,9854.24
14590.8,9854.72
14098.6,9854.72
14089,9854.24
14079.4,9852.83
14070.1,9850.48
14061,9847.23
14052.2,9843.1
14044,9838.13
14036.2,9832.38
14029,9825.89
14022.6,9818.73
14016.8,9810.97
14011.8,9802.69
14007.7,9793.96
14004.5,9784.86
14002.1,9775.49
14000.7,9765.94
14000.2,9756.29
14000.2,9441.33
14000.7,9431.68
14002.1,9422.13
14004.5,9412.76
14007.7,9403.67
14011.8,9394.93
14016.8,9386.65
14022.6,9378.89
14029,9371.73
14036.2,9365.25
14044,9359.49
14052.2,9354.53
14061,9350.4
14070.1,9347.14
14079.4,9344.8
14089,9343.38
14098.6,9342.91
14590.8,9342.91
Z" /> 
<path style="fill:#000000; fill-opacity:1.0; 
stroke:#000000; stroke-width:0; stroke-opacity:1; 
stroke-linecap:round; stroke-linejoin:round;fill-rule:evenodd;"
d="M 14600.4,10563.9
14610,10565.3
14619.3,10567.6
14628.4,10570.9
14637.2,10575
14645.5,10580
14653.2,10585.7
14660.4,10592.2
14666.9,10599.4
14672.6,10607.1
14677.6,10615.4
14681.7,10624.1
14685,10633.2
14687.3,10642.6
14688.7,10652.2
14689.2,10661.8
14689.2,10976.8
14688.7,10986.4
14687.3,10996
14685,11005.3
14681.7,11014.4
14677.6,11023.2
14672.6,11031.4
14666.9,11039.2
14660.4,11046.4
14653.2,11052.8
14645.5,11058.6
14637.2,11063.6
14628.4,11067.7
14619.3,11071
14610,11073.3
14600.4,11074.7
14590.8,11075.2
14098.6,11075.2
14089,11074.7
14079.4,11073.3
14070.1,11071
14061,11067.7
14052.2,11063.6
14044,11058.6
14036.2,11052.8
14029,11046.4
14022.6,11039.2
14016.8,11031.4
14011.8,11023.2
14007.7,11014.4
14004.5,11005.3
14002.1,10996
14000.7,10986.4
14000.2,10976.8
14000.2,10661.8
14000.7,10652.2
14002.1,10642.6
14004.5,10633.2
14007.7,10624.1
14011.8,10615.4
14016.8,10607.1
14022.6,10599.4
14029,10592.2
14036.2,10585.7
14044,10580
14052.2,10575
14061,10570.9
14070.1,10567.6
14079.4,10565.3
14089,10563.9
14098.6,10563.4
14590.8,10563.4
Z" /> 
</g>
<g >
</g>
<g style="fill:#000000; fill-opacity:1.0; 
stroke:#000000; stroke-width:0; stroke-opacity:1; 
stroke-linecap:round; stroke-linejoin:round;">
<path style="fill:#000000; fill-opacity:1.0; 
stroke:#000000; stroke-width:0; stroke-opacity:1; 
stroke-linecap:round; stroke-linejoin:round;fill-rule:evenodd;"
d="M 14600.4,6953.62
14610,6955.03
14619.3,6957.38
14628.4,6960.63
14637.2,6964.76
14645.5,6969.73
14653.2,6975.48
14660.4,6981.97
14666.9,6989.13
14672.6,6996.89
14677.6,7005.17
14681.7,7013.9
14685,7023
14687.3,7032.37
14688.7,7041.92
14689.2,7051.57
14689.2,7366.53
14688.7,7376.18
14687.3,7385.73
14685,7395.1
14681.7,7404.19
14677.6,7412.93
14672.6,7421.21
14666.9,7428.97
14660.4,7436.13
14653.2,7442.61
14645.5,7448.37
14637.2,7453.33
14628.4,7457.46
14619.3,7460.72
14610,7463.06
14600.4,7464.48
14590.8,7464.95
14098.6,7464.95
14089,7464.48
14079.4,7463.06
14070.1,7460.72
14061,7457.46
14052.2,7453.33
14044,7448.37
14036.2,7442.61
14029,7436.13
14022.6,7428.97
14016.8,7421.21
14011.8,7412.93
14007.7,7404.19
14004.5,7395.1
14002.1,7385.73
14000.7,7376.18
14000.2,7366.53
14000.2,7051.57
14000.7,7041.92
14002.1,7032.37
14004.5,7023
14007.7,7013.9
14011.8,7005.17
14016.8,6996.89
14022.6,6989.13
14029,6981.97
14036.2,6975.48
14044,6969.73
14052.2,6964.76
14061,6960.63
14070.1,6957.38
14079.4,6955.03
14089,6953.62
14098.6,6953.14
14590.8,6953.14
Z" /> 
<path style="fill:#000000; fill-opacity:1.0; 
stroke:#000000; stroke-width:0; stroke-opacity:1; 
stroke-linecap:round; stroke-linejoin:round;fill-rule:evenodd;"
d="M 14600.4,8174.09
14610,8175.51
14619.3,8177.85
14628.4,8181.11
14637.2,8185.24
14645.5,8190.2
14653.2,8195.96
14660.4,8202.44
14666.9,8209.6
14672.6,8217.36
14677.6,8225.64
14681.7,8234.37
14685,8243.47
14687.3,8252.84
14688.7,8262.39
14689.2,8272.04
14689.2,8587
14688.7,8596.65
14687.3,8606.2
14685,8615.57
14681.7,8624.67
14677.6,8633.4
14672.6,8641.68
14666.9,8649.44
14660.4,8656.6
14653.2,8663.08
14645.5,8668.84
14637.2,8673.8
14628.4,8677.93
14619.3,8681.19
14610,8683.53
14600.4,8684.95
14590.8,8685.43
14098.6,8685.43
14089,8684.95
14079.4,8683.53
14070.1,8681.19
14061,8677.93
14052.2,8673.8
14044,8668.84
14036.2,8663.08
14029,8656.6
14022.6,8649.44
14016.8,8641.68
14011.8,8633.4
14007.7,8624.67
14004.5,8615.57
14002.1,8606.2
14000.7,8596.65
14000.2,8587
14000.2,8272.04
14000.7,8262.39
14002.1,8252.84
14004.5,8243.47
14007.7,8234.37
14011.8,8225.64
14016.8,8217.36
14022.6,8209.6
14029,8202.44
14036.2,8195.96
14044,8190.2
14052.2,8185.24
14061,8181.11
14070.1,8177.85
14079.4,8175.51
14089,8174.09
14098.6,8173.61
14590.8,8173.61
Z" /> 
</g>
<g >
</g>
<g style="fill:#000000; fill-opacity:1.0; 
stroke:#000000; stroke-width:0; stroke-opacity:1; 
stroke-linecap:round; stroke-linejoin:round;">
<path style="fill:#000000; fill-opacity:1.0; 
stroke:#000000; stroke-width:0; stroke-opacity:1; 
stroke-linecap:round; stroke-linejoin:round;fill-rule:evenodd;"
d="M 11179.4,4201.17
10510.1,4201.17
10510.1,3216.92
11179.4,3216.92
Z" /> 
<path style="fill:#000000; fill-opacity:1.0; 
stroke:#000000; stroke-width:0; stroke-opacity:1; 
stroke-linecap:round; stroke-linejoin:round;fill-rule:evenodd;"
d="M 10179.4,4201.17
9510.06,4201.17
9510.06,3216.92
10179.4,3216.92
Z" /> 
<path style="fill:#000000; fill-opacity:1.0; 
stroke:#000000; stroke-width:0; stroke-opacity:1; 
stroke-linecap:round; stroke-linejoin:round;fill-rule:evenodd;"
d="M 9179.35,4201.17
8510.06,4201.17
8510.06,3216.92
9179.35,3216.92
Z" /> 
</g>
<g >
</g>
<g style="fill:#000000; fill-opacity:1.0; 
stroke:#000000; stroke-width:0; stroke-opacity:1; 
stroke-linecap:round; stroke-linejoin:round;">
<path style="fill:#000000; fill-opacity:1.0; 
stroke:#000000; stroke-width:0; stroke-opacity:1; 
stroke-linecap:round; stroke-linejoin:round;fill-rule:evenodd;"
d="M 4836.83,8374.4
4836.83,9043.69
3852.58,9043.69
3852.58,8374.4
Z" /> 
<path style="fill:#000000; fill-opacity:1.0; 
stroke:#000000; stroke-width:0; stroke-opacity:1; 
stroke-linecap:round; stroke-linejoin:round;fill-rule:evenodd;"
d="M 4836.83,9374.4
4836.83,10043.7
3852.58,10043.7
3852.58,9374.4
Z" /> 
<path style="fill:#000000; fill-opacity:1.0; 
stroke:#000000; stroke-width:0; stroke-opacity:1; 
stroke-linecap:round; stroke-linejoin:round;fill-rule:evenodd;"
d="M 4836.83,10374.4
4836.83,11043.7
3852.58,11043.7
3852.58,10374.4
Z" /> 
<path style="fill:#000000; fill-opacity:1.0; 
stroke:#000000; stroke-width:0; stroke-opacity:1; 
stroke-linecap:round; stroke-linejoin:round;fill-rule:evenodd;"
d="M 4836.83,11374.4
4836.83,12043.7
3852.58,12043.7
3852.58,11374.4
Z" /> 
<path style="fill:#000000; fill-opacity:1.0; 
stroke:#000000; stroke-width:0; stroke-opacity:1; 
stroke-linecap:round; stroke-linejoin:round;fill-rule:evenodd;"
d="M 4836.83,12374.4
4836.83,13043.7
3852.58,13043.7
3852.58,12374.4
Z" /> 
<path style="fill:#000000; fill-opacity:1.0; 
stroke:#000000; stroke-width:0; stroke-opacity:1; 
stroke-linecap:round; stroke-linejoin:round;fill-rule:evenodd;"
d="M 4836.83,13374.4
4836.83,14043.7
3852.58,14043.7
3852.58,13374.4
Z" /> 
</g>
<g >
</g>
<g style="fill:#000000; fill-opacity:1.0; 
stroke:#000000; stroke-width:0; stroke-opacity:1; 
stroke-linecap:round; stroke-linejoin:round;">
<path style="fill:#000000; fill-opacity:1.0; 
stroke:#000000; stroke-width:0; stroke-opacity:1; 
stroke-linecap:round; stroke-linejoin:round;fill-rule:evenodd;"
d="M 17100.4,8100.27
17110,8101.69
17119.3,8104.03
17128.4,8107.29
17137.2,8111.42
17145.5,8116.38
17153.2,8122.14
17160.4,8128.62
17166.9,8135.78
17172.6,8143.54
17177.6,8151.82
17181.7,8160.56
17185,8169.65
17187.3,8179.02
17188.7,8188.57
17189.2,8198.22
17189.2,8562.39
17188.7,8572.04
17187.3,8581.6
17185,8590.97
17181.7,8600.06
17177.6,8608.79
17172.6,8617.08
17166.9,8624.83
17160.4,8631.99
17153.2,8638.48
17145.5,8644.23
17137.2,8649.2
17128.4,8653.33
17119.3,8656.58
17110,8658.93
17100.4,8660.35
17090.8,8660.82
16598.6,8660.82
16589,8660.35
16579.4,8658.93
16570.1,8656.58
16561,8653.33
16552.2,8649.2
16544,8644.23
16536.2,8638.48
16529,8631.99
16522.6,8624.83
16516.8,8617.08
16511.8,8608.79
16507.7,8600.06
16504.5,8590.97
16502.1,8581.6
16500.7,8572.04
16500.2,8562.39
16500.2,8198.22
16500.7,8188.57
16502.1,8179.02
16504.5,8169.65
16507.7,8160.56
16511.8,8151.82
16516.8,8143.54
16522.6,8135.78
16529,8128.62
16536.2,8122.14
16544,8116.38
16552.2,8111.42
16561,8107.29
16570.1,8104.03
16579.4,8101.69
16589,8100.27
16598.6,8099.8
17090.8,8099.8
Z" /> 
<path style="fill:#000000; fill-opacity:1.0; 
stroke:#000000; stroke-width:0; stroke-opacity:1; 
stroke-linecap:round; stroke-linejoin:round;fill-rule:evenodd;"
d="M 17100.4,6929.01
17110,6930.43
17119.3,6932.77
17128.4,6936.03
17137.2,6940.16
17145.5,6945.12
17153.2,6950.88
17160.4,6957.36
17166.9,6964.52
17172.6,6972.28
17177.6,6980.56
17181.7,6989.3
17185,6998.39
17187.3,7007.76
17188.7,7017.31
17189.2,7026.96
17189.2,7391.13
17188.7,7400.78
17187.3,7410.34
17185,7419.71
17181.7,7428.8
17177.6,7437.53
17172.6,7445.82
17166.9,7453.57
17160.4,7460.73
17153.2,7467.22
17145.5,7472.97
17137.2,7477.94
17128.4,7482.07
17119.3,7485.32
17110,7487.67
17100.4,7489.09
17090.8,7489.56
16598.6,7489.56
16589,7489.09
16579.4,7487.67
16570.1,7485.32
16561,7482.07
16552.2,7477.94
16544,7472.97
16536.2,7467.22
16529,7460.73
16522.6,7453.57
16516.8,7445.82
16511.8,7437.53
16507.7,7428.8
16504.5,7419.71
16502.1,7410.34
16500.7,7400.78
16500.2,7391.13
16500.2,7026.96
16500.7,7017.31
16502.1,7007.76
16504.5,6998.39
16507.7,6989.3
16511.8,6980.56
16516.8,6972.28
16522.6,6964.52
16529,6957.36
16536.2,6950.88
16544,6945.12
16552.2,6940.16
16561,6936.03
16570.1,6932.77
16579.4,6930.43
16589,6929.01
16598.6,6928.54
17090.8,6928.54
Z" /> 
</g>
<g >
</g>
<g style="fill:#000000; fill-opacity:1.0; 
stroke:#000000; stroke-width:0; stroke-opacity:1; 
stroke-linecap:round; stroke-linejoin:round;">
<path style="fill:#000000; fill-opacity:1.0; 
stroke:#000000; stroke-width:0; stroke-opacity:1; 
stroke-linecap:round; stroke-linejoin:round;fill-rule:evenodd;"
d="M 17100.4,9429.01
17110,9430.43
17119.3,9432.77
17128.4,9436.03
17137.2,9440.16
17145.5,9445.12
17153.2,9450.88
17160.4,9457.36
17166.9,9464.52
17172.6,9472.28
17177.6,9480.56
17181.7,9489.3
17185,9498.39
17187.3,9507.76
17188.7,9517.31
17189.2,9526.96
17189.2,9891.13
17188.7,9900.78
17187.3,9910.34
17185,9919.71
17181.7,9928.8
17177.6,9937.53
17172.6,9945.82
17166.9,9953.57
17160.4,9960.73
17153.2,9967.22
17145.5,9972.97
17137.2,9977.94
17128.4,9982.07
17119.3,9985.32
17110,9987.67
17100.4,9989.09
17090.8,9989.56
16598.6,9989.56
16589,9989.09
16579.4,9987.67
16570.1,9985.32
16561,9982.07
16552.2,9977.94
16544,9972.97
16536.2,9967.22
16529,9960.73
16522.6,9953.57
16516.8,9945.82
16511.8,9937.53
16507.7,9928.8
16504.5,9919.71
16502.1,9910.34
16500.7,9900.78
16500.2,9891.13
16500.2,9526.96
16500.7,9517.31
16502.1,9507.76
16504.5,9498.39
16507.7,9489.3
16511.8,9480.56
16516.8,9472.28
16522.6,9464.52
16529,9457.36
16536.2,9450.88
16544,9445.12
16552.2,9440.16
16561,9436.03
16570.1,9432.77
16579.4,9430.43
16589,9429.01
16598.6,9428.54
17090.8,9428.54
Z" /> 
<path style="fill:#000000; fill-opacity:1.0; 
stroke:#000000; stroke-width:0; stroke-opacity:1; 
stroke-linecap:round; stroke-linejoin:round;fill-rule:evenodd;"
d="M 17100.4,10600.3
17110,10601.7
17119.3,10604
17128.4,10607.3
17137.2,10611.4
17145.5,10616.4
17153.2,10622.1
17160.4,10628.6
17166.9,10635.8
17172.6,10643.5
17177.6,10651.8
17181.7,10660.6
17185,10669.6
17187.3,10679
17188.7,10688.6
17189.2,10698.2
17189.2,11062.4
17188.7,11072
17187.3,11081.6
17185,11091
17181.7,11100.1
17177.6,11108.8
17172.6,11117.1
17166.9,11124.8
17160.4,11132
17153.2,11138.5
17145.5,11144.2
17137.2,11149.2
17128.4,11153.3
17119.3,11156.6
17110,11158.9
17100.4,11160.3
17090.8,11160.8
16598.6,11160.8
16589,11160.3
16579.4,11158.9
16570.1,11156.6
16561,11153.3
16552.2,11149.2
16544,11144.2
16536.2,11138.5
16529,11132
16522.6,11124.8
16516.8,11117.1
16511.8,11108.8
16507.7,11100.1
16504.5,11091
16502.1,11081.6
16500.7,11072
16500.2,11062.4
16500.2,10698.2
16500.7,10688.6
16502.1,10679
16504.5,10669.6
16507.7,10660.6
16511.8,10651.8
16516.8,10643.5
16522.6,10635.8
16529,10628.6
16536.2,10622.1
16544,10616.4
16552.2,10611.4
16561,10607.3
16570.1,10604
16579.4,10601.7
16589,10600.3
16598.6,10599.8
17090.8,10599.8
Z" /> 
</g>
<g >
</g>
<g style="fill:#000000; fill-opacity:1.0; 
stroke:#000000; stroke-width:0; stroke-opacity:1; 
stroke-linecap:round; stroke-linejoin:round;">
<path style="fill:#000000; fill-opacity:1.0; 
stroke:#000000; stroke-width:0; stroke-opacity:1; 
stroke-linecap:round; stroke-linejoin:round;fill-rule:evenodd;"
d="M 9016.76,15355.2
9026.31,15356.6
9035.68,15359
9044.77,15362.2
9053.51,15366.3
9061.79,15371.3
9069.55,15377.1
9076.7,15383.5
9083.19,15390.7
9088.95,15398.5
9093.91,15406.7
9098.04,15415.5
9101.29,15424.6
9103.64,15433.9
9105.06,15443.5
9105.53,15453.1
9105.53,15965
9105.06,15974.6
9103.64,15984.2
9101.29,15993.5
9098.04,16002.6
9093.91,16011.4
9088.95,16019.6
9083.19,16027.4
9076.7,16034.6
9069.55,16041
9061.79,16046.8
9053.51,16051.8
9044.77,16055.9
9035.68,16059.1
9026.31,16061.5
9016.76,16062.9
9007.11,16063.4
8682.3,16063.4
8672.66,16062.9
8663.1,16061.5
8653.73,16059.1
8644.64,16055.9
8635.91,16051.8
8627.62,16046.8
8619.86,16041
8612.71,16034.6
8606.22,16027.4
8600.47,16019.6
8595.5,16011.4
8591.37,16002.6
8588.12,15993.5
8585.77,15984.2
8584.35,15974.6
8583.88,15965
8583.88,15453.1
8584.35,15443.5
8585.77,15433.9
8588.12,15424.6
8591.37,15415.5
8595.5,15406.7
8600.47,15398.5
8606.22,15390.7
8612.71,15383.5
8619.86,15377.1
8627.62,15371.3
8635.91,15366.3
8644.64,15362.2
8653.73,15359
8663.1,15356.6
8672.66,15355.2
8682.3,15354.7
9007.11,15354.7
Z" /> 
<path style="fill:#000000; fill-opacity:1.0; 
stroke:#000000; stroke-width:0; stroke-opacity:1; 
stroke-linecap:round; stroke-linejoin:round;fill-rule:evenodd;"
d="M 7786.44,15355.2
7795.99,15356.6
7805.36,15359
7814.46,15362.2
7823.19,15366.3
7831.47,15371.3
7839.23,15377.1
7846.39,15383.5
7852.88,15390.7
7858.63,15398.5
7863.6,15406.7
7867.73,15415.5
7870.98,15424.6
7873.33,15433.9
7874.74,15443.5
7875.22,15453.1
7875.22,15965
7874.74,15974.6
7873.33,15984.2
7870.98,15993.5
7867.73,16002.6
7863.6,16011.4
7858.63,16019.6
7852.88,16027.4
7846.39,16034.6
7839.23,16041
7831.47,16046.8
7823.19,16051.8
7814.46,16055.9
7805.36,16059.1
7795.99,16061.5
7786.44,16062.9
7776.79,16063.4
7451.99,16063.4
7442.34,16062.9
7432.79,16061.5
7423.42,16059.1
7414.32,16055.9
7405.59,16051.8
7397.31,16046.8
7389.55,16041
7382.39,16034.6
7375.91,16027.4
7370.15,16019.6
7365.19,16011.4
7361.06,16002.6
7357.8,15993.5
7355.46,15984.2
7354.04,15974.6
7353.56,15965
7353.56,15453.1
7354.04,15443.5
7355.46,15433.9
7357.8,15424.6
7361.06,15415.5
7365.19,15406.7
7370.15,15398.5
7375.91,15390.7
7382.39,15383.5
7389.55,15377.1
7397.31,15371.3
7405.59,15366.3
7414.32,15362.2
7423.42,15359
7432.79,15356.6
7442.34,15355.2
7451.99,15354.7
7776.79,15354.7
Z" /> 
</g>
<g >
</g>
<g >
</g>
<g style="fill:#000000; fill-opacity:1.0; 
stroke:#000000; stroke-width:0; stroke-opacity:1; 
stroke-linecap:round; stroke-linejoin:round;">
</g>
<g style="fill:#000000; fill-opacity:1.0; 
stroke:#000000; stroke-width:98.4252; stroke-opacity:1; 
stroke-linecap:round; stroke-linejoin:round;">
</g>
<g style="fill:#000000; fill-opacity:0.0; 
stroke:#000000; stroke-width:98.4252; stroke-opacity:1; 
stroke-linecap:round; stroke-linejoin:round;">
<path d="M5614 13709
L7614 15709
" />
<path d="M4344 13709
L5614 13709
" />
<path d="M4401 11709
L4344 11709
" />
<path d="M4964 12272
L4401 11709
" />
<path d="M4964 13679
L4964 12272
" />
<path d="M4935 13709
L4964 13679
" />
<path d="M4344 13709
L4935 13709
" />
<path d="M7844 11709
L11506 11709
" />
<path d="M7844 11709
L4344 11709
" />
<path d="M12819 9955
L14344 8429
" />
<path d="M10592 9955
L12819 9955
" />
<path d="M9338 11209
L10592 9955
" />
<path d="M7844 11209
L9338 11209
" />
<path d="M4344 10709
L7844 10709
" />
<path d="M4844 10209
L7844 10209
" />
<path d="M4344 9709
L4844 10209
" />
<path d="M7441 9709
L7844 9709
" />
<path d="M7313 9837
L7441 9709
" />
<path d="M7422 8462
L7313 8572
" />
<path d="M8844 7877
L8258 8462
" />
<path d="M7313 8572
L7313 9837
" />
<path d="M8258 8462
L7422 8462
" />
<path d="M8844 3709
L8844 7877
" />
<path d="M13734 10209
L11506 10209
" />
<path d="M14344 10819
L13734 10209
" />
<path d="M12734 11533
L12734 14709
" />
<path d="M11909 10709
L12734 11533
" />
<path d="M11506 10709
L11909 10709
" />
<path d="M19600 15783
L16844 15783
" />
<path d="M8919 15783
L8844 15709
" />
<path d="M16844 15783
L8919 15783
" />
<path d="M14454 9709
L14344 9598
" />
<path d="M16844 9709
L14454 9709
" />
<path d="M12754 7209
L14344 7209
" />
<path d="M9844 4299
L12754 7209
" />
<path d="M9844 3709
L9844 4299
" />
<path d="M14344 7209
L16844 7209
" />
<path d="M16844 14209
L19600 14209
" />
<path d="M16081 10117
L16844 10880
" />
<path d="M13872 9850
L14139 10117
" />
<path d="M13872 9347
L13872 9850
" />
<path d="M14139 10117
L16081 10117
" />
<path d="M14004 9214
L13872 9347
" />
<path d="M14838 9214
L14004 9214
" />
<path d="M16844 7209
L14838 9214
" />
<path d="M13703 15181
L15872 15181
" />
<path d="M13571 14153
L13571 15048
" />
<path d="M15872 15181
L16844 14209
" />
<path d="M13571 15048
L13703 15181
" />
<path d="M16844 10880
L13571 14153
" />
<path d="M17317 11346
L17317 8852
" />
<path d="M17317 8852
L16844 8380
" />
<path d="M13954 14709
L17317 11346
" />
</g>
<g >
</g>
</g>
<g style="fill:#FFFFFF; fill-opacity:0.0; 
stroke:#FFFFFF; stroke-width:98.4252; stroke-opacity:1; 
stroke-linecap:round; stroke-linejoin:round;">
</g>
<g style="fill:#FFFFFF; fill-opacity:1.0; 
stroke:#FFFFFF; stroke-width:0; stroke-opacity:1; 
stroke-linecap:round; stroke-linejoin:round;">
<circle cx="10844.7" cy="3709.05" r="216.535" /> 
</g>
<g style="fill:#FFFFFF; fill-opacity:1.0; 
stroke:#FFFFFF; stroke-width:39.3701; stroke-opacity:1; 
stroke-linecap:round; stroke-linejoin:round;">
</g>
<g style="fill:#FFFFFF; fill-opacity:1.0; 
stroke:#FFFFFF; stroke-width:0; stroke-opacity:1; 
stroke-linecap:round; stroke-linejoin:round;">
<circle cx="9844.71" cy="3709.05" r="216.535" /> 
</g>
<g style="fill:#FFFFFF; fill-opacity:1.0; 
stroke:#FFFFFF; stroke-width:39.3701; stroke-opacity:1; 
stroke-linecap:round; stroke-linejoin:round;">
</g>
<g style="fill:#FFFFFF; fill-opacity:1.0; 
stroke:#FFFFFF; stroke-width:0; stroke-opacity:1; 
stroke-linecap:round; stroke-linejoin:round;">
<circle cx="8844.71" cy="3709.05" r="216.535" /> 
</g>
<g style="fill:#FFFFFF; fill-opacity:1.0; 
stroke:#FFFFFF; stroke-width:39.3701; stroke-opacity:1; 
stroke-linecap:round; stroke-linejoin:round;">
</g>
<g style="fill:#FFFFFF; fill-opacity:1.0; 
stroke:#FFFFFF; stroke-width:0; stroke-opacity:1; 
stroke-linecap:round; stroke-linejoin:round;">
<circle cx="4344.71" cy="8709.05" r="216.535" /> 
</g>
<g style="fill:#FFFFFF; fill-opacity:1.0; 
stroke:#FFFFFF; stroke-width:39.3701; stroke-opacity:1; 
stroke-linecap:round; stroke-linejoin:round;">
</g>
<g style="fill:#FFFFFF; fill-opacity:1.0; 
stroke:#FFFFFF; stroke-width:0; stroke-opacity:1; 
stroke-linecap:round; stroke-linejoin:round;">
<circle cx="4344.71" cy="9709.05" r="216.535" /> 
</g>
<g style="fill:#FFFFFF; fill-opacity:1.0; 
stroke:#FFFFFF; stroke-width:39.3701; stroke-opacity:1; 
stroke-linecap:round; stroke-linejoin:round;">
</g>
<g style="fill:#FFFFFF; fill-opacity:1.0; 
stroke:#FFFFFF; stroke-width:0; stroke-opacity:1; 
stroke-linecap:round; stroke-linejoin:round;">
<circle cx="4344.71" cy="10709" r="216.535" /> 
</g>
<g style="fill:#FFFFFF; fill-opacity:1.0; 
stroke:#FFFFFF; stroke-width:39.3701; stroke-opacity:1; 
stroke-linecap:round; stroke-linejoin:round;">
</g>
<g style="fill:#FFFFFF; fill-opacity:1.0; 
stroke:#FFFFFF; stroke-width:0; stroke-opacity:1; 
stroke-linecap:round; stroke-linejoin:round;">
<circle cx="4344.71" cy="11709" r="216.535" /> 
</g>
<g style="fill:#FFFFFF; fill-opacity:1.0; 
stroke:#FFFFFF; stroke-width:39.3701; stroke-opacity:1; 
stroke-linecap:round; stroke-linejoin:round;">
</g>
<g style="fill:#FFFFFF; fill-opacity:1.0; 
stroke:#FFFFFF; stroke-width:0; stroke-opacity:1; 
stroke-linecap:round; stroke-linejoin:round;">
<circle cx="4344.71" cy="12709" r="216.535" /> 
</g>
<g style="fill:#FFFFFF; fill-opacity:1.0; 
stroke:#FFFFFF; stroke-width:39.3701; stroke-opacity:1; 
stroke-linecap:round; stroke-linejoin:round;">
</g>
<g style="fill:#FFFFFF; fill-opacity:1.0; 
stroke:#FFFFFF; stroke-width:0; stroke-opacity:1; 
stroke-linecap:round; stroke-linejoin:round;">
<circle cx="4344.71" cy="13709" r="216.535" /> 
</g>
<g style="fill:#FFFFFF; fill-opacity:1.0; 
stroke:#FFFFFF; stroke-width:39.3701; stroke-opacity:1; 
stroke-linecap:round; stroke-linejoin:round;">
</g>
<g style="fill:#000000; fill-opacity:1.0; 
stroke:#000000; stroke-width:39.3701; stroke-opacity:1; 
stroke-linecap:round; stroke-linejoin:round;">
</g>
<g style="fill:#000000; fill-opacity:0.0; 
stroke:#000000; stroke-width:39.3701; stroke-opacity:1; 
stroke-linecap:round; stroke-linejoin:round;">
</g>
<g style="fill:#000000; fill-opacity:0.0; 
stroke:#000000; stroke-width:59.0551; stroke-opacity:1; 
stroke-linecap:round; stroke-linejoin:round;">
<text x="9344.71" y="13905.9"
textLength="2372.41" font-size="524.934" lengthAdjust="spacingAndGlyphs"
text-anchor="middle" opacity="0">UnDone</text>
<path d="M8342 13493
L8302 13812
L8316 13849
L8332 13868
L8367 13887
L8442 13887
L8482 13868
L8503 13849
L8527 13812
L8567 13493
" />
<path d="M8738 13624
L8705 13887
" />
<path d="M8733 13662
L8754 13643
L8794 13624
L8850 13624
L8885 13643
L8899 13680
L8874 13887
" />
<path d="M9061 13887
L9110 13493
L9204 13493
L9258 13512
L9291 13549
L9305 13587
L9314 13662
L9307 13718
L9279 13793
L9256 13830
L9213 13868
L9155 13887
L9061 13887
" />
<path d="M9511 13887
L9476 13868
L9460 13849
L9445 13812
L9460 13699
L9483 13662
L9504 13643
L9544 13624
L9600 13624
L9635 13643
L9652 13662
L9666 13699
L9652 13812
L9628 13849
L9607 13868
L9567 13887
L9511 13887
" />
<path d="M9844 13624
L9811 13887
" />
<path d="M9839 13662
L9860 13643
L9900 13624
L9956 13624
L9991 13643
L10006 13680
L9980 13887
" />
<path d="M10320 13868
L10280 13887
L10205 13887
L10170 13868
L10156 13830
L10174 13680
L10198 13643
L10238 13624
L10313 13624
L10348 13643
L10362 13680
L10357 13718
L10165 13755
" />
<path d="M6844 709
L6844 1709
" />
<path d="M12344 709
L6844 709
" />
<path d="M12344 4709
L12344 709
" />
<path d="M13344 6209
L12344 4709
" />
<path d="M17844 6209
L13344 6209
" />
<path d="M18844 7709
L17844 6209
" />
<path d="M18844 11209
L18844 7709
" />
<path d="M17344 12709
L18844 11209
" />
<path d="M20344 12709
L17344 12709
" />
<path d="M21344 13709
L20344 12709
" />
<path d="M21344 16709
L21344 13709
" />
<path d="M19844 17709
L21344 16709
" />
<path d="M5844 17709
L19844 17709
" />
<path d="M4844 15709
L5844 17709
" />
<path d="M1344 15709
L4844 15709
" />
<path d="M344 14209
L1344 15709
" />
<path d="M344 8209
L344 14209
" />
<path d="M1344 6709
L344 8209
" />
<path d="M5844 6709
L1344 6709
" />
<path d="M6844 5709
L5844 6709
" />
<path d="M6844 1709
L6844 5709
" />
<g >
</g>
<g >
</g>
<g >
</g>
<g >
</g>
<g >
</g>
<g >
</g>
<g >
</g>
<g >
</g>
<g >
</g>
<g >
</g>
<g >
</g>
<g >
</g>
<g >
</g>
</g>
<g style="fill:#000000; fill-opacity:0.0; 
stroke:#000000; stroke-width:59.0551; stroke-opacity:1; 
stroke-linecap:round; stroke-linejoin:round;">
<g >
</g>
<g >
</g>
<g >
</g>
<g >
</g>
<g >
</g>
<g >
</g>
<g >
</g>
<g >
</g>
<g >
</g>
<g >
</g>
<g >
</g>
<g >
</g>
<g >
</g>
</g> 
</svg>
