<svg id="svg" xmlns="http://www.w3.org/2000/svg" xmlns:xlink="http://www.w3.org/1999/xlink" width="400" height="228.48" viewBox="0, 0, 400,228.48"><g id="svgg"><path id="path0" d="M0.401 0.422 C 0.644 0.652,1.310 1.269,1.881 1.793 C 10.328 9.541,19.913 19.926,28.247 30.360 C 52.985 61.330,69.325 94.579,73.598 122.640 C 73.688 123.234,73.782 123.815,73.805 123.930 C 73.846 124.127,73.904 124.152,74.704 124.319 C 125.040 134.778,164.387 165.530,194.057 217.600 C 195.747 220.567,198.212 225.110,199.516 227.660 C 199.746 228.111,199.967 228.480,200.007 228.480 C 200.046 228.480,200.263 228.111,200.489 227.660 C 205.331 217.998,213.049 205.282,219.947 195.600 C 247.599 156.794,283.176 132.787,325.697 124.242 C 326.124 124.156,326.157 124.133,326.197 123.895 C 326.220 123.755,326.385 122.740,326.564 121.640 C 330.506 97.436,343.080 69.766,362.466 42.640 C 373.422 27.309,386.169 12.747,398.663 1.289 C 399.401 0.612,399.988 0.041,399.968 0.021 C 399.947 0.000,397.957 0.722,395.545 1.625 C 382.012 6.690,368.250 11.469,346.440 18.676 C 317.788 28.145,308.927 31.107,299.080 34.511 C 292.007 36.955,289.169 37.973,289.109 38.087 C 289.077 38.149,288.710 39.244,288.295 40.520 C 278.716 69.968,257.928 104.804,242.925 116.553 C 230.484 126.294,224.100 117.768,222.803 89.680 C 222.519 83.517,222.502 73.645,222.757 62.365 C 222.823 59.463,222.860 57.073,222.840 57.053 C 222.790 57.004,222.764 57.099,222.518 58.200 C 219.133 73.347,209.154 86.886,200.794 87.673 C 192.116 88.489,181.144 74.568,177.441 58.040 C 177.152 56.754,177.110 56.850,177.157 58.680 C 177.878 86.202,177.135 100.897,174.562 109.981 C 170.914 122.859,164.097 123.802,153.011 112.960 C 138.368 98.640,120.308 66.967,111.705 40.520 C 111.290 39.244,110.923 38.148,110.889 38.085 C 110.824 37.961,108.045 36.968,99.920 34.166 C 90.056 30.764,80.663 27.625,53.080 18.515 C 31.387 11.349,15.633 5.863,2.690 0.965 C -0.243 -0.145,-0.180 -0.130,0.401 0.422 " stroke="none" fill="#000000" fill-rule="evenodd"></path></g></svg>
